<svg xmlns="http://www.w3.org/2000/svg" width="47" height="41"><defs><clipPath id="a"><path data-name="Rectangle 1" transform="translate(.829 3.868)" fill="none" d="M0 0h47v41H0z"/></clipPath></defs><g data-name="Vector Smart Object"><g data-name="Group 6"><g data-name="Group 5"><g data-name="Group 4" clip-path="url(#a)" transform="translate(-.829 -3.868)"><path data-name="Path 5146" d="M19.273 3.878S6.9 3.059 6.9 16.157C6.9 24.879 4.633 27.93 3.119 29a.936.936 0 00.1 1.565 13.3 13.3 0 008.4 1.845.225.225 0 01.155.412L3.125 37.77a4.543 4.543 0 00-2.3 3.94v1.027A2.067 2.067 0 002.907 44.8h12.31l13.164-5.617-3.12-34.159a14.244 14.244 0 00-5.988-1.146zm0 0" fill="#fff" opacity=".5"/></g></g><path data-name="Path 5147" d="M43.726 13.285a1.6 1.6 0 01-.681-1.255C43.02 9.175 42.085.009 31.126.009c-.148 0-.288.008-.433.011s-.284-.011-.432-.011c-10.953 0-11.893 9.157-11.919 12.016a1.556 1.556 0 01-.657 1.241 3.081 3.081 0 00-1.214 3.627 13.7 13.7 0 003.344 4.464 1.542 1.542 0 01.489 1.092c.173 4.626 2.107 6.293 3.329 6.9a2.026 2.026 0 011.218 1.777c0 .953-1.024 1.677-1.832 2.192l-5.032 1.11a4.567 4.567 0 00-3.6 4.448v2.056h23.7l2.884-17.177c.051-.409.091-.838.107-1.305a1.541 1.541 0 01.489-1.092 13.644 13.644 0 003.36-4.5 3.053 3.053 0 00-1.206-3.571zm0 0" fill="#fff"/><path data-name="Path 5148" d="M47 32.1a8.914 8.914 0 11-8.913-8.828A8.871 8.871 0 0147 32.1zm0 0" fill="#09142e"/><path data-name="Path 5149" d="M38.087 37.718a.806.806 0 01-.811-.8v-9.63a.81.81 0 011.621 0v9.63a.807.807 0 01-.81.8zm0 0" fill="#fff"/><path data-name="Path 5150" d="M42.949 32.902h-9.725a.8.8 0 110-1.6h9.725a.8.8 0 110 1.6zm0 0" fill="#fff"/></g></g></svg>