<svg xmlns="http://www.w3.org/2000/svg" width="43.007" height="43.007"><path data-name="Forma 1" d="M40.123 10.979a21.682 21.682 0 00-7.825-8.022 21.181 21.181 0 00-21.587 0 21.681 21.681 0 00-7.826 8.022 22.585 22.585 0 001.219 24.025 21.1 21.1 0 0010.6 7.964 1.23 1.23 0 001.12-.2 1.137 1.137 0 00.364-.861l-.014-1.55q-.014-1.464-.014-2.554l-.644.115a8.017 8.017 0 01-1.554.1 11.58 11.58 0 01-1.946-.2 4.3 4.3 0 01-1.876-.86 3.639 3.639 0 01-1.232-1.766l-.28-.66a7.19 7.19 0 00-.882-1.463 3.4 3.4 0 00-1.218-1.091l-.2-.144a2.07 2.07 0 01-.364-.345 1.584 1.584 0 01-.252-.4q-.084-.2.14-.331a1.774 1.774 0 01.812-.129l.56.086a4.044 4.044 0 011.386.688 4.587 4.587 0 011.358 1.492 5.024 5.024 0 001.554 1.794 3.247 3.247 0 001.834.616 7.738 7.738 0 001.6-.143 5.487 5.487 0 001.26-.43 4.7 4.7 0 011.372-2.957 18.827 18.827 0 01-2.87-.517 11.245 11.245 0 01-2.632-1.121 7.582 7.582 0 01-2.254-1.922 9.331 9.331 0 01-1.47-3.014 14.662 14.662 0 01-.574-4.305A8.49 8.49 0 0110 14.983a7.893 7.893 0 01.2-5.854 3.843 3.843 0 012.408.388 16.573 16.573 0 012.338 1.105q.742.458 1.19.774a19.743 19.743 0 0110.752 0l1.064-.689a14.947 14.947 0 012.575-1.263 3.589 3.589 0 012.268-.316 7.819 7.819 0 01.224 5.855 8.492 8.492 0 012.212 5.913 14.822 14.822 0 01-.574 4.319 8.97 8.97 0 01-1.484 3.014 7.872 7.872 0 01-2.268 1.909 11.282 11.282 0 01-2.632 1.12 18.7 18.7 0 01-2.87.517 5.184 5.184 0 011.456 4.076v6.056a1.156 1.156 0 00.35.86 1.191 1.191 0 001.106.2 21.1 21.1 0 0010.6-7.965 22.58 22.58 0 001.217-24.021z" fill="#fff"/></svg>