<svg xmlns="http://www.w3.org/2000/svg" width="47" height="43"><g data-name="Vector Smart Object"><g data-name="Group 3"><path data-name="Path 5141" d="M35.656 12.905v17.13a3.993 3.993 0 01-3.992 3.992l-13.836.059L9.728 43v-8.914H3.993a3.994 3.994 0 01-3.992-4V12.965a4 4 0 013.992-4l27.671-.055a3.992 3.992 0 013.992 3.991zm0 0" fill="#fff"/><path data-name="Path 5142" d="M17.828 17.827H7.293a.811.811 0 110-1.622h10.535a.811.811 0 010 1.622zm0 0" fill="#141414"/><path data-name="Path 5143" d="M28.364 22.684H7.293a.809.809 0 110-1.617h21.071a.809.809 0 110 1.617zm0 0" fill="#141414"/><path data-name="Path 5144" d="M28.364 27.547H7.293a.809.809 0 110-1.617h21.071a.809.809 0 110 1.617zm0 0" fill="#141414"/><path data-name="Path 5145" d="M43.008.056L15.342 0a4 4 0 00-4 3.991v4.962l20.319-.04a3.992 3.992 0 013.992 3.991v14.944l5.675 6.238v-8.913h1.68A3.992 3.992 0 0047 21.182V4.051a3.993 3.993 0 00-3.992-4zm0 0" fill="#fff" opacity=".5"/></g></g></svg>